<?xml version="1.0" encoding="UTF-8" standalone="no"?>
<svg
   width="882"
   height="648"
   viewBox="0 0 2944 2162"
   fill="none"
   version="1.1"
   id="svg53"
   sodipodi:docname="babashka.svg"
   inkscape:version="1.1.2 (0a00cf5339, 2022-02-04)"
   xmlns:inkscape="http://www.inkscape.org/namespaces/inkscape"
   xmlns:sodipodi="http://sodipodi.sourceforge.net/DTD/sodipodi-0.dtd"
   xmlns="http://www.w3.org/2000/svg"
   xmlns:svg="http://www.w3.org/2000/svg">
  <sodipodi:namedview
     id="namedview55"
     pagecolor="#ffffff"
     bordercolor="#999999"
     borderopacity="1"
     inkscape:pageshadow="0"
     inkscape:pageopacity="0"
     inkscape:pagecheckerboard="0"
     showgrid="false"
     inkscape:zoom="0.97222222"
     inkscape:cx="101.82857"
     inkscape:cy="324"
     inkscape:window-width="5120"
     inkscape:window-height="2095"
     inkscape:window-x="0"
     inkscape:window-y="36"
     inkscape:window-maximized="1"
     inkscape:current-layer="svg53" />
  <g
     id="g86"
     transform="matrix(1.7124044,0,0,1.7124044,-1112.2942,-227.52225)">
    <path
       fill-rule="evenodd"
       clip-rule="evenodd"
       d="M 1742.91,1219.89 C 1857.93,1138.38 1933,1004.21 1933,852.5 c 0,-248.528 -172,-572 -450,-713.5 -275.5,149 -450,464.972 -450,713.5 0,151.71 75.07,285.88 190.09,367.39 -4.11,0.55 -8.14,1.25 -12.09,2.11 -87.39,19.07 -194,163.05 -194,163.05 h 264 c 46.97,0 91.63,-17.64 126.96,-37.43 17.16,22.7 44.38,37.38 75.04,37.38 30.66,0 57.89,-14.68 75.04,-37.38 35.33,19.79 79.99,37.43 126.96,37.43 h 264 c 0,0 -106.61,-143.98 -194,-163.05 -3.95,-0.86 -7.98,-1.56 -12.09,-2.11 z"
       fill="url(#paint0_linear)"
       id="path2"
       style="fill:#225500" />
    <circle
       cx="1482.5"
       cy="878.5"
       r="311.5"
       fill="#ffffff"
       id="circle4" />
    <path
       d="m 1212,745.5 c 184.5,13 293.5,-32 369,-143.5 0,0 -145.5,-49 -234,0 -88.2,48.834 -135,143.5 -135,143.5 z"
       fill="#b4b4b4"
       id="path6" />
    <path
       d="m 1728,718 c -74,-8 -140,-32 -171.5,-122.5 0,0 65.43,14.935 131.5,75.114 68.62,62.5 40,47.386 40,47.386 z"
       fill="#b4b4b4"
       id="path8" />
    <circle
       cx="1482.5"
       cy="878.5"
       r="311.5"
       stroke="#0a0000"
       stroke-width="40"
       id="circle10" />
    <path
       d="m 1544,745 h -123 l 30,30 v 90 c 4.5,-29.5 60.5,-30.5 63.5,0 l 7.5,-90 z"
       fill="#000000"
       id="path12" />
    <path
       d="m 1098.12,785 c 0,-22.091 17.91,-40 40,-40 h 284.9 c 24.18,0 42.83,21.292 39.65,45.264 l -24.76,186.5 c -2.64,19.882 -19.6,34.736 -39.65,34.736 h -260.14 c -22.09,0 -40,-17.909 -40,-40 z"
       fill="#000000"
       id="path14" />
    <path
       d="m 1216.1,967.55 v -16.5 h -5.55 c -3.6,0 -6,-2.55 -7.2,-6.3 l -22.8,-68.7 c -1.5,-4.35 -3.3,-7.5 -5.7,-9.9 -4.5,-4.65 -10.35,-6.15 -16.95,-6.15 h -7.2 v 17.25 h 4.8 c 4.05,0 7.2,1.5 8.55,6.3 l 3.15,11.1 -28.2,72.9 h 20.55 l 16.95,-48 9,28.95 c 3.45,11.25 9.3,19.05 22.5,19.05 z"
       fill="#ffffff"
       id="path16" />
    <path
       d="m 1248.8,951.05 v 16.5 h 56 v -16.5 z"
       fill="#ffffff"
       id="path18" />
    <path
       d="M 1503.01,790.267 C 1499.83,766.294 1518.48,745 1542.66,745 H 1827 c 22.09,0 40,17.909 40,40 v 186.096 c 0,22.091 -17.91,40.004 -40,40.004 h -259.62 c -20.05,0 -37.01,-14.856 -39.65,-34.738 z"
       fill="#000000"
       id="path20" />
    <path
       d="m 1649.3,968 v -16.5 h -5.55 c -3.6,0 -6,-2.55 -7.2,-6.3 l -22.8,-68.7 c -1.5,-4.35 -3.3,-7.5 -5.7,-9.9 -4.5,-4.65 -10.35,-6.15 -16.95,-6.15 h -7.2 v 17.25 h 4.8 c 4.05,0 7.2,1.5 8.55,6.3 l 3.15,11.1 -28.2,72.9 h 20.55 l 16.95,-48 9,28.95 c 3.45,11.25 9.3,19.05 22.5,19.05 z"
       fill="#ffffff"
       id="path22" />
    <path
       d="M 1682,951.5 V 968 h 56 v -16.5 z"
       fill="#ffffff"
       id="path24" />
  </g>
  <defs
     id="defs51">
    <linearGradient
       id="paint0_linear"
       x1="1499"
       y1="139"
       x2="1499"
       y2="1385.52"
       gradientUnits="userSpaceOnUse">
      <stop
         stop-color="#E41F26"
         id="stop46" />
      <stop
         offset="1"
         stop-color="#B70000"
         id="stop48" />
    </linearGradient>
  </defs>
</svg>
